<?xml version="1.0" encoding="utf-8"?>
<!-- Generator: Adobe Illustrator 27.4.1, SVG Export Plug-In . SVG Version: 6.00 Build 0)  -->
<svg version="1.1" id="Layer_1" xmlns="http://www.w3.org/2000/svg" xmlns:xlink="http://www.w3.org/1999/xlink" x="0px" y="0px"
	 viewBox="0 0 3792.08 917.45" style="enable-background:new 0 0 3792.08 917.45;" xml:space="preserve">
<style type="text/css">
	.st0{fill:#E0ADCF;}
	.st1{fill:#5A5B56;}
	.st2{fill:#76CFF3;}
	.st3{fill:#595A55;}
	.st4{fill:#6D6D6D;}
	.st5{fill:#FAFAFB;}
	.st6{fill:#2887AD;}
	.st7{fill:#BFD0E1;}
	.st8{fill:#474A54;}
	.st9{fill:#5DA4C1;}
	.st10{fill:#D5E0EB;}
	.st11{fill:#5BA3C0;}
	.st12{fill:#C6DDE8;}
	.st13{fill:#DEE6EF;}
	.st14{fill:#767880;}
	.st15{fill:#EBF0F5;}
	.st16{fill:#A2A3A9;}
	.st17{fill:#CACBCE;}
	.st18{fill:#D2DEEA;}
	.st19{fill:#A1A2A8;}
	.st20{fill:#A8A9AF;}
	.st21{fill:#D4DFEA;}
	.st22{fill:#DDE5EE;}
	.st23{fill:#D1D1D4;}
	.st24{fill:#CADFE9;}
	.st25{fill:#D2D3D6;}
	.st26{fill:#AAABB0;}
	.st27{fill:#70727A;}
	.st28{fill:#CEDBE8;}
	.st29{fill:#A5A6AB;}
	.st30{fill:url(#SVGID_1_);}
	.st31{fill:url(#SVGID_00000050642808044963829120000001573879075815457676_);}
	.st32{fill:url(#SVGID_00000012463557271450282630000007252057303060017591_);}
	.st33{fill:url(#SVGID_00000180342702334473402050000012776860134591562646_);}
	.st34{fill:url(#SVGID_00000019660685711436592530000017190842483408336554_);}
	.st35{fill:url(#SVGID_00000007408995984688897730000006600902620567831938_);}
	.st36{fill:url(#SVGID_00000176038748187606022480000018016205974172768388_);}
	.st37{fill:url(#SVGID_00000052790815818980639530000015384675180914865067_);}
	.st38{fill:url(#SVGID_00000118398853690732963260000004072679997300285063_);}
	.st39{fill:url(#SVGID_00000006677543102933540600000012389720891710220972_);}
	.st40{fill:url(#SVGID_00000121981645643827460890000010375049423676115348_);}
	.st41{fill:none;stroke:#0000FF;stroke-width:12;stroke-miterlimit:10;}
	.st42{fill:url(#SVGID_00000114783471910619579280000007791188355192911505_);}
	.st43{fill:url(#SVGID_00000065056026632759010930000001896756200209200053_);}
	.st44{fill:url(#SVGID_00000005979585126774359350000005705832398367588269_);}
	.st45{fill:url(#SVGID_00000101070617012594816310000004258813731277029768_);}
	.st46{fill:url(#SVGID_00000143602480630226212530000008561163628536726411_);}
	.st47{fill:url(#SVGID_00000054966523013588292750000012007917671460261296_);}
	.st48{fill:url(#SVGID_00000094591369634258838680000010167402601387912330_);}
</style>
<g>
	<g>
		<path class="st0" d="M252.96,514.13c-0.55-0.68-1.65-0.21-1.55,0.66c1.88,16.95,14.36,31.44,24.95,44.18
			c14.02,16.52,30.8,30.39,47.52,44.05c14.57,11.12,30.08,21.31,42.57,34.89c7.92,8.94,17.14,19.43,16.05,32.22
			c-0.11,1.67-0.7,2.2-2.32,2.12c-0.09,0-0.18-0.02-0.26-0.05c-49.3-17.29-95.03-45.23-134.91-78.91
			c-44.11-37.1-76.79-87.59-91.97-143.23c-7.78-29.76-12.67-61.77-5.85-92.21c7.15-28.21,23.15-53.83,44.16-73.87
			c0.02-0.02,0.05-0.05,0.08-0.07c4.12-3.26,1.52,2.49,0.3,4.17c-0.03,0.04-0.05,0.08-0.07,0.12
			c-22.81,45.84-19.89,98.06,4.04,142.79c0.01,0.02,0.02,0.03,0.03,0.05c3.79,5.99,5.65,16.85,14.34,16.72
			c15.29,0.27,33.24-2.22,44.85,9.99c0.04,0.04,0.07,0.08,0.1,0.12c10.47,15.36,20.16,31.33,32.14,45.68
			c9.88,13.3,22.07,24.86,31.52,38.39c0.03,0.05,0.06,0.1,0.09,0.15c2.85,6.08-5.55,9.8-10.35,11.01
			C290.91,557.48,264.75,528.65,252.96,514.13z"/>
		<path class="st0" d="M525.95,514.08c-10.79,13.7-29.74,32.99-44.95,38.61c-0.03,0.01-0.06,0.02-0.1,0.03
			c-7.22,2.01-16.41,0.46-20.9-6.07c-0.93-1.25-0.91-2.41-0.28-3.79c0.02-0.04,0.04-0.09,0.07-0.13
			c7.17-11.38,17.45-20.44,25.53-31.2c8.55-10.22,16.42-20.94,24.13-31.79c13.45-20.01,16.38-32.38,44.28-31.96
			c21.34,0.3,20.36,2.41,29.68-17.4c15.93-30.38,23.92-65.36,17.29-99.41c-1.89-12.76-5.57-25.22-10.77-37.04
			c-0.02-0.05-0.04-0.11-0.05-0.16c-0.55-2.91-7.18-11.29-3.48-10.72c17.96,16.27,31.92,37.23,40.59,59.88
			c23.92,64.44-10.17,154.72-51.09,206.59c-44.58,55.72-110.4,98.99-177.36,122.68c-0.11,0.04-0.23,0.06-0.35,0.05
			c-1.06-0.07-1.62-0.61-1.74-1.75c-1.3-15.09,10.69-26.99,20.37-37.02c20.99-19.92,46.28-34.59,66.86-55.05
			c15.75-15.35,41.5-40.55,43.84-63.73C527.59,513.84,526.49,513.39,525.95,514.08z"/>
		<path class="st1" d="M520.2,281.05c-0.92-1.42-9.97-11.31-9.48-6.23c0.02,0.2,0.12,0.38,0.26,0.52
			c4.68,4.54,5.47,10.77,4.93,17.07c0,0.06-0.01,0.11-0.03,0.16c-0.86,2.91-0.09,11.9-4.35,11.08
			c-18.68-2.95-38.78,2.67-54.02,13.72c-3.11,2.22-5.9,4.81-8.5,7.61c-0.83,0.9-1.56,1.17-2.65,0.31
			c-12.16-9.21-27.21-11.15-42-10.39c-3.36,0.15-6.59,1.26-9.78,1.86c-0.11,0.02-0.21,0.06-0.31,0.12
			c-0.22,0.15-0.45,0.33-0.67,0.38c-0.08,0.07-0.15,0.14-0.22,0.22c-0.07,0.07-0.15,0.15-0.22,0.22c-0.12,0.13-0.23,0.27-0.32,0.42
			c0,0,0,0.01-0.01,0.01c-0.31,0.5,0.01,1.19,0.59,1.29c0.53,0.09,1.11,0.1,1.74,0.06c11.06-0.36,22.06,1.84,32.57,5.32
			c6.61,2.48,12.79,7.13,15.39,13.9c0.36,0.81,0.19,1.91,1.36,2.17c1.09,0.24,1.69-0.55,2.33-1.21c4.22-4.36,8.64-8.51,13.47-12.18
			c13.61-10.33,31.11-16.94,48.27-13.14c4,0.9,7.79,2.18,11.51,3.79c1.65,0.44,5.8,4.1,6,0.67
			C528.43,306.07,528.45,291.82,520.2,281.05z"/>
		<path class="st2" d="M574.04,278.57c-0.05-0.1-0.13-0.19-0.21-0.27c-43.29-36.57-108.99-42.38-157.5-12.75
			c-40.59,25.84-9.91,20.21-55.4-4.29c-35.04-18.98-78.36-21.31-115.25-6.23c-12.25,5.01-24.01,11.4-34.3,19.77
			c-3.36,2.83-7.41,5.01-9.42,9.24c-9.97,18.86-15.66,39.8-17.11,61.05c1.25,0.27,0.88,0.19,2.13,0.47
			c22.97-60.87,92.34-94.89,153.72-68.41c16.06,6.93,30.6,17.33,42.25,30.38c2.69,3.09,5.69,6,7.63,9.6
			c0.32,0.59,0.65,1.03,1.01,1.37c0.14-0.25,0.29-0.5,0.47-0.73c0.3-0.38,0.66-0.72,1-1.07c0.04-0.33,0.41-0.62,0.61-0.89
			c2.57-3.42,5.39-6.63,8.33-9.73c56.2-60.23,154.51-42.33,188.97,30.78c0.41,0.87,1.72,0.52,1.67-0.44
			C591.4,316.25,583.45,296.24,574.04,278.57z"/>
		<path class="st3" d="M249.63,445.67c-1.62,0.31-2.92-0.44-4.26-0.94c-2.03-0.86-1.64-4.79,0.36-5.4c4.59-1.7,7.65-5.22,10.12-9.08
			c4.2-6.27,6.2-13.72,8.82-20.73c0.01-0.02,0.02-0.05,0.02-0.07c5.44-19.07,5.41-39.26,12.66-57.96
			c6.86-18.9,18.99-36.34,36.18-47.15c4.97-2.9,16.21-9.13,21.68-7.16c0.09,0.03,0.18,0.08,0.25,0.14c2.49,1.85,2.17,4.77-0.74,6.2
			c-5.2,2.56-9.95,5.81-14.24,9.69c-12.26,10.91-21.58,25.49-26.09,41.28c-4.05,13.67-4.34,27.92-7.96,41.61
			C281.05,415.46,273.35,443.7,249.63,445.67z"/>
		<path class="st3" d="M525.82,382.58c0.04,0,0.09-0.01,0.13-0.01c9.3-1.83,9.8,8.5,4.77,13.69c-2.71,2.38-3.09,5.87-4.45,8.99
			c-0.04,0.09-0.07,0.19-0.07,0.29c-0.59,8.12,12.14,12.23,18.57,9.76c1.6-0.61,3.37-0.72,4.86-1.71c1.31-0.97,2.58,0.78,0.78,1.56
			c-5.72,3.61-15.72,10.98-21.73,4.48c-0.21-0.25-0.46-0.61-0.85-0.43c-0.58,4.65-1.93,7.76-6.76,9.53
			c-2.04,0.69-9.09,3.96-12.4,3.67c-0.86-0.08-1.08-1.23-0.32-1.64c3.72-2.01,7.88-3.72,10.34-7.61
			c6.43-10.7,2.19-18.49-10.21-19.03c-0.04,0-0.07,0-0.11,0c-4.75,0.47-9.95-3.82-8.16-8.85c0.02-0.05,0.04-0.1,0.06-0.15
			C503.74,388.39,518.62,382.65,525.82,382.58z"/>
		<path class="st3" d="M365.36,422.6c-0.08,0.02-0.17,0.02-0.25,0.02c-11.24-0.77-17.66-10.38-20.01-20.45
			c-0.57-2.66-3.2-7.66-0.22-9.56c0.1-0.06,0.21-0.1,0.32-0.12c1.1-0.2,2.09,0,2.7,1.07c2.53,4.47,6.23,7.89,10.33,10.78
			c7.19,5.32,16.4,5.72,24.91,5.22c1.13,0.04,2.47-0.38,3.01,1.01c0.56,1.41-0.34,2.51-1.35,3.29
			C379.39,418.6,372.27,421.28,365.36,422.6z"/>
		<path class="st3" d="M484.74,376.02c-0.03,0-0.05,0-0.08,0c-6.62,0.09-12.65,1.89-18.2,5.62c-4.9,2.22-9.25,12.46-11.44,11.48
			c-5.39-1.54,1.34-19.84,4.6-22.35C469.89,357.54,505.48,377.43,484.74,376.02z"/>
		<path class="st3" d="M544.47,355.15c-0.04,0-0.08,0-0.13,0c-7.19-0.73-14.12,0.73-19.47,5.64c-2.01,1.57-3.6,3.54-4.95,5.72
			c-1.17,1.88-2.47,2.28-3.47,1.25c-2.21-2.38,0.96-7.83,1.44-10.92c0.01-0.05,0.02-0.1,0.04-0.16c2.54-7.13,8.93-13.48,17.14-11.3
			c0.04,0.01,0.08,0.02,0.11,0.04c3.84,1.57,13,3.73,13,8.55c0,0.14-0.03,0.29-0.11,0.42C547.36,355.58,545.67,355.04,544.47,355.15
			z"/>
		<path class="st3" d="M428.31,351.92c0.02-0.08,0.02-0.17,0.01-0.26c-0.89-8.91-5.88-16.74-12.67-22.41
			c-1.13-0.62-0.58-1.92,0.63-1.85c1.91-0.34,3.5,0.76,5.08,1.38C453.54,340.57,426.21,362.9,428.31,351.92z"/>
		<path class="st3" d="M427.32,435.93c-6.48-10.46-10.11-22.42-10.77-34.73c-0.44-8.23-0.01-16.51-1.32-24.68
			c-0.01-0.05-0.02-0.1-0.04-0.14c-1.53-17.87-7.85-36.13-18-50.51c-0.59-0.84-1.91-0.16-1.54,0.8c0,0.01,0.01,0.02,0.01,0.03
			c2.4,5.82,4.27,12.06,5.39,18.18c2.99,14.86,2.5,29.99,1.17,45.06c0,0.05-0.01,0.1-0.03,0.14c-9.96,36.86,20.61,68.19,50.09,85.3
			c0.07,0.04,0.15,0.07,0.23,0.09c3.6,0.94-2.81,11.76,2.89,19.9c0.02,0.03,0.04,0.06,0.05,0.09c4.26,8.93,17.92,11.39,15.01,13.53
			c-0.06,0.04-0.11,0.09-0.16,0.14c-10.22,12.35-21.64,23.84-35.25,32.5c-20.85,15.17-51.75,4.08-63.55-17.47
			c-0.35-0.48-0.63-1.02-0.92-1.52c-0.3-0.53-0.58-1.07-0.83-1.62c-0.13-0.29-0.25-0.58-0.37-0.87c-0.08-0.18-0.16-0.37-0.2-0.56
			c-0.01-0.02-0.03-0.04-0.05-0.06c-1.24-3.4-1.8-7.51-6.18-7.03c-2.5,0.27-4.61,1.68-4.72,4.38c-0.09,2.16,0.67,4.42,1.76,6.3
			c0.79,2.61,7.83,12.06,3.83,10.37c-19.67-8.92-46.05,13.75-37.2,34.48c1.52,3.59,8.1,13.79,12.63,11.59
			c0.97-0.91,0.18-2-0.47-2.92c-9.02-11.67-1.26-26.9,11.64-31.42c0.05-0.02,0.1-0.03,0.15-0.04c20.97-4.06,37.57,18.43,58.77,16.39
			c36.97-0.96,66.89-44.22,85.12-72.74c0.02-0.03,0.04-0.07,0.06-0.11C502.32,472.92,451.81,468.62,427.32,435.93z"/>
	</g>
	<g>
		<path class="st0" d="M740.16,365.27c4.56,0,8.52,1.63,11.88,4.89c3.35,3.35,5.03,7.36,5.03,12.02v184.44
			c0,4.75-1.68,8.71-5.03,11.88c-3.35,3.35-7.31,5.03-11.88,5.03h-0.42c-4.56,0-8.52-1.68-11.88-5.03
			c-3.35-3.17-5.03-7.13-5.03-11.88V382.18c0-4.66,1.68-8.66,5.03-12.02c3.35-3.26,7.31-4.89,11.88-4.89H740.16z"/>
		<path class="st0" d="M824.84,566.62c0,4.75-1.68,8.71-5.03,11.88c-3.35,3.35-7.31,5.03-11.88,5.03h-0.42
			c-4.57,0-8.52-1.68-11.88-5.03c-3.35-3.17-5.03-7.13-5.03-11.88v-76.43c0-18.63,6.61-34.56,19.84-47.79
			c13.23-13.23,29.16-19.84,47.79-19.84c18.54,0,34.42,6.62,47.65,19.84c13.23,13.23,19.84,29.16,19.84,47.79v76.43
			c0,4.75-1.68,8.71-5.03,11.88c-3.17,3.35-7.13,5.03-11.88,5.03h-0.28c-4.66,0-8.66-1.68-12.02-5.03
			c-3.35-3.17-5.03-7.13-5.03-11.88v-76.43c0-9.22-3.21-17.09-9.64-23.61c-6.52-6.52-14.39-9.78-23.61-9.78
			c-9.32,0-17.24,3.26-23.75,9.78c-6.43,6.52-9.64,14.39-9.64,23.61V566.62z"/>
		<path class="st0" d="M996.98,456.79c-4.1,0-7.55,1.4-10.34,4.19c-2.79,2.89-4.19,6.34-4.19,10.34c0,5.59,2.7,9.78,8.1,12.58
			c1.86,1.03,9.64,3.35,23.33,6.99c11.09,3.17,19.33,7.31,24.73,12.44c7.73,7.36,11.6,17.84,11.6,31.44
			c0,13.41-4.75,24.92-14.25,34.51c-9.59,9.5-21.1,14.25-34.51,14.25h-36.47c-4.57,0-8.52-1.68-11.88-5.03
			c-3.35-3.17-5.03-7.13-5.03-11.88v-0.28c0-4.66,1.68-8.66,5.03-12.02s7.31-5.03,11.88-5.03h37.87c4.1,0,7.54-1.4,10.34-4.19
			s4.19-6.24,4.19-10.34c0-5.12-2.65-8.99-7.96-11.6c-1.4-0.65-9.22-2.98-23.47-6.99c-11.09-3.26-19.33-7.55-24.73-12.85
			c-7.73-7.55-11.6-18.21-11.6-32c0-13.41,4.75-24.87,14.25-34.37c9.59-9.59,21.1-14.39,34.51-14.39h25.71
			c4.66,0,8.66,1.68,12.02,5.03s5.03,7.36,5.03,12.02v0.28c0,4.75-1.68,8.71-5.03,11.88c-3.35,3.35-7.36,5.03-12.02,5.03H996.98z"/>
		<path class="st0" d="M1089.9,365.27c4.56,0,8.52,1.63,11.88,4.89c3.35,3.35,5.03,7.36,5.03,12.02v40.38h20.96
			c4.56,0,8.52,1.68,11.88,5.03s5.03,7.36,5.03,12.02v0.28c0,4.75-1.68,8.71-5.03,11.88c-3.35,3.35-7.31,5.03-11.88,5.03h-20.96
			v82.86c0,2.7,0.93,4.98,2.79,6.85c1.86,1.86,4.19,2.79,6.99,2.79h11.18c4.56,0,8.52,1.68,11.88,5.03s5.03,7.36,5.03,12.02v0.28
			c0,4.75-1.68,8.71-5.03,11.88c-3.35,3.35-7.31,5.03-11.88,5.03h-11.18c-12.11,0-22.5-4.28-31.16-12.85
			c-8.57-8.66-12.86-19-12.86-31.02V382.18c0-4.66,1.68-8.66,5.03-12.02c3.35-3.26,7.31-4.89,11.88-4.89H1089.9z"/>
		<path class="st0" d="M1186.59,404.39c-5.4,0-10.01-1.91-13.83-5.73c-3.82-3.82-5.73-8.43-5.73-13.83c0-5.31,1.91-9.87,5.73-13.69
			c3.82-3.82,8.43-5.73,13.83-5.73c5.31,0,9.87,1.91,13.69,5.73c3.91,3.73,5.87,8.29,5.87,13.69c0,5.5-1.96,10.11-5.87,13.83
			C1196.47,402.49,1191.9,404.39,1186.59,404.39z M1186.73,422.56c4.75,0,8.71,1.68,11.88,5.03c3.35,3.35,5.03,7.36,5.03,12.02
			v127.01c0,4.75-1.68,8.71-5.03,11.88c-3.17,3.35-7.13,5.03-11.88,5.03h-0.28c-4.66,0-8.66-1.68-12.02-5.03
			c-3.35-3.17-5.03-7.13-5.03-11.88V439.61c0-4.66,1.68-8.66,5.03-12.02s7.36-5.03,12.02-5.03H1186.73z"/>
		<path class="st0" d="M1254.22,365.27c4.56,0,8.52,1.63,11.88,4.89c3.35,3.35,5.03,7.36,5.03,12.02v40.38h20.96
			c4.56,0,8.52,1.68,11.88,5.03s5.03,7.36,5.03,12.02v0.28c0,4.75-1.68,8.71-5.03,11.88c-3.35,3.35-7.31,5.03-11.88,5.03h-20.96
			v82.86c0,2.7,0.93,4.98,2.79,6.85c1.86,1.86,4.19,2.79,6.99,2.79h11.18c4.56,0,8.52,1.68,11.88,5.03s5.03,7.36,5.03,12.02v0.28
			c0,4.75-1.68,8.71-5.03,11.88c-3.35,3.35-7.31,5.03-11.88,5.03h-11.18c-12.11,0-22.5-4.28-31.16-12.85
			c-8.57-8.66-12.86-19-12.86-31.02V382.18c0-4.66,1.68-8.66,5.03-12.02c3.35-3.26,7.31-4.89,11.88-4.89H1254.22z"/>
		<path class="st0" d="M1362.79,516.04c0,9.22,3.21,17.09,9.64,23.61c6.52,6.43,14.44,9.64,23.75,9.64c9.22,0,17.09-3.21,23.61-9.64
			c6.43-6.52,9.64-14.39,9.64-23.61v-76.43c0-4.66,1.68-8.66,5.03-12.02s7.36-5.03,12.02-5.03h0.28c4.75,0,8.71,1.68,11.88,5.03
			c3.35,3.35,5.03,7.36,5.03,12.02v76.43c0,18.54-6.62,34.42-19.84,47.65c-13.23,13.23-29.11,19.84-47.65,19.84
			c-18.63,0-34.56-6.61-47.79-19.84c-13.23-13.23-19.84-29.11-19.84-47.65v-76.43c0-4.66,1.68-8.66,5.03-12.02s7.31-5.03,11.88-5.03
			h0.42c4.56,0,8.52,1.68,11.88,5.03s5.03,7.36,5.03,12.02V516.04z"/>
		<path class="st0" d="M1508.95,365.27c4.56,0,8.52,1.63,11.88,4.89c3.35,3.35,5.03,7.36,5.03,12.02v40.38h20.96
			c4.56,0,8.52,1.68,11.88,5.03s5.03,7.36,5.03,12.02v0.28c0,4.75-1.68,8.71-5.03,11.88c-3.35,3.35-7.31,5.03-11.88,5.03h-20.96
			v82.86c0,2.7,0.93,4.98,2.79,6.85c1.86,1.86,4.19,2.79,6.99,2.79h11.18c4.56,0,8.52,1.68,11.88,5.03s5.03,7.36,5.03,12.02v0.28
			c0,4.75-1.68,8.71-5.03,11.88c-3.35,3.35-7.31,5.03-11.88,5.03h-11.18c-12.11,0-22.5-4.28-31.16-12.85
			c-8.57-8.66-12.86-19-12.86-31.02V382.18c0-4.66,1.68-8.66,5.03-12.02c3.35-3.26,7.31-4.89,11.88-4.89H1508.95z"/>
		<path class="st0" d="M1659.58,422.56c22.17,0,41.13,7.87,56.87,23.61c15.74,15.74,23.61,34.7,23.61,56.87
			c0,22.17-7.87,41.13-23.61,56.87c-15.74,15.74-34.7,23.61-56.87,23.61c-22.17,0-41.13-7.87-56.87-23.61
			c-15.74-15.74-23.61-34.7-23.61-56.87c0-22.17,7.87-41.13,23.61-56.87C1618.45,430.43,1637.4,422.56,1659.58,422.56z
			 M1659.58,457.07c-12.86,0-23.8,4.52-32.84,13.55c-8.94,9.04-13.41,19.98-13.41,32.84c0,12.76,4.47,23.66,13.41,32.7
			c9.03,9.04,19.98,13.55,32.84,13.55c12.76,0,23.66-4.52,32.7-13.55c9.03-9.03,13.55-19.93,13.55-32.7
			c0-12.85-4.52-23.8-13.55-32.84C1683.24,461.59,1672.34,457.07,1659.58,457.07z"/>
		<path class="st0" d="M1879.09,566.62c0,4.75-1.68,8.71-5.03,11.88c-3.35,3.35-7.31,5.03-11.88,5.03h-0.42
			c-4.57,0-8.52-1.68-11.88-5.03c-3.35-3.17-5.03-7.13-5.03-11.88V432.48c0-18.54,6.57-34.37,19.7-47.51
			c13.13-13.13,28.97-19.7,47.51-19.7c22.17,0,38.89,7.36,50.16,22.08c11.18-14.72,27.85-22.08,50.02-22.08
			c18.54,0,34.37,6.57,47.51,19.7c13.13,13.13,19.7,28.97,19.7,47.51v134.14c0,4.66-1.63,8.62-4.89,11.88
			c-3.35,3.35-7.36,5.03-12.02,5.03h-0.28c-4.75,0-8.71-1.68-11.88-5.03c-3.35-3.17-5.03-7.13-5.03-11.88V432.48
			c0-9.22-3.21-17.05-9.64-23.47c-6.43-6.43-14.25-9.64-23.47-9.64c-9.13,0-16.91,3.21-23.33,9.64s-9.64,14.25-9.64,23.47v134.14
			c0,4.75-1.68,8.71-5.03,11.88c-3.17,3.35-7.13,5.03-11.88,5.03h-0.28c-4.66,0-8.66-1.68-12.02-5.03
			c-3.35-3.17-5.03-7.13-5.03-11.88V432.48c0-9.22-3.21-17.05-9.64-23.47s-14.21-9.64-23.33-9.64c-9.13,0-16.91,3.21-23.33,9.64
			c-6.43,6.43-9.64,14.25-9.64,23.47V566.62z"/>
		<path class="st0" d="M2240.44,446.17c15.74,15.74,23.61,34.7,23.61,56.87v63.58c0,4.75-1.68,8.71-5.03,11.88
			c-3.35,3.35-7.31,5.03-11.88,5.03h-0.42c-4.57,0-8.52-1.68-11.88-5.03c-3.35-3.17-5.03-7.13-5.03-11.88
			c-10.62,11.27-26.04,16.91-46.25,16.91c-22.17,0-41.13-7.87-56.87-23.61c-15.74-15.74-23.61-34.7-23.61-56.87
			c0-22.17,7.87-41.13,23.61-56.87c15.74-15.74,34.7-23.61,56.87-23.61C2205.74,422.56,2224.69,430.43,2240.44,446.17z
			 M2150.73,470.35c-8.94,9.04-13.41,19.94-13.41,32.7c0,12.85,4.47,23.8,13.41,32.84c9.03,8.94,19.98,13.41,32.84,13.41
			c12.86,0,23.75-4.47,32.7-13.41c9.04-9.03,13.55-19.98,13.55-32.84c0-12.76-4.52-23.66-13.55-32.7
			c-9.04-9.03-19.93-13.55-32.7-13.55C2170.71,456.79,2159.77,461.31,2150.73,470.35z"/>
		<path class="st0" d="M2355.86,422.56c4.66,0,8.66,1.68,12.02,5.03c3.26,3.35,4.89,7.36,4.89,12.02v0.28
			c0,4.66-1.63,8.62-4.89,11.88c-3.35,3.35-7.36,5.03-12.02,5.03h-7.96c-7.64,0-14.11,2.65-19.42,7.96
			c-5.22,5.31-7.87,11.79-7.96,19.42v82.44c0,4.75-1.68,8.71-5.03,11.88c-3.35,3.35-7.31,5.03-11.88,5.03h-0.42
			c-4.57,0-8.52-1.68-11.88-5.03c-3.35-3.17-5.03-7.13-5.03-11.88v-82.44c0.19-17.05,6.19-31.58,18.03-43.6
			c12.02-12.02,26.55-18.03,43.59-18.03H2355.86z"/>
		<path class="st0" d="M2404.77,404.39c-5.4,0-10.01-1.91-13.83-5.73c-3.82-3.82-5.73-8.43-5.73-13.83c0-5.31,1.91-9.87,5.73-13.69
			c3.82-3.82,8.43-5.73,13.83-5.73c5.31,0,9.87,1.91,13.69,5.73c3.91,3.73,5.87,8.29,5.87,13.69c0,5.5-1.96,10.11-5.87,13.83
			C2414.64,402.49,2410.08,404.39,2404.77,404.39z M2404.91,422.56c4.75,0,8.71,1.68,11.88,5.03c3.35,3.35,5.03,7.36,5.03,12.02
			v127.01c0,4.75-1.68,8.71-5.03,11.88c-3.17,3.35-7.13,5.03-11.88,5.03h-0.28c-4.66,0-8.66-1.68-12.02-5.03
			c-3.35-3.17-5.03-7.13-5.03-11.88V439.61c0-4.66,1.68-8.66,5.03-12.02s7.36-5.03,12.02-5.03H2404.91z"/>
		<path class="st0" d="M2483.58,566.62c0,4.75-1.68,8.71-5.03,11.88c-3.35,3.35-7.31,5.03-11.88,5.03h-0.42
			c-4.57,0-8.52-1.68-11.88-5.03c-3.35-3.17-5.03-7.13-5.03-11.88v-76.43c0-18.63,6.61-34.56,19.84-47.79
			c13.23-13.23,29.16-19.84,47.79-19.84c18.54,0,34.42,6.62,47.65,19.84c13.23,13.23,19.84,29.16,19.84,47.79v76.43
			c0,4.75-1.68,8.71-5.03,11.88c-3.17,3.35-7.13,5.03-11.88,5.03h-0.28c-4.66,0-8.66-1.68-12.02-5.03
			c-3.35-3.17-5.03-7.13-5.03-11.88v-76.43c0-9.22-3.21-17.09-9.64-23.61c-6.52-6.52-14.39-9.78-23.61-9.78
			c-9.32,0-17.24,3.26-23.75,9.78c-6.43,6.52-9.64,14.39-9.64,23.61V566.62z"/>
		<path class="st0" d="M2744.04,446.17c15.74,15.74,23.61,34.7,23.61,56.87v63.58c0,4.75-1.68,8.71-5.03,11.88
			c-3.35,3.35-7.31,5.03-11.88,5.03h-0.42c-4.57,0-8.52-1.68-11.88-5.03c-3.35-3.17-5.03-7.13-5.03-11.88
			c-10.62,11.27-26.04,16.91-46.25,16.91c-22.17,0-41.13-7.87-56.87-23.61c-15.74-15.74-23.61-34.7-23.61-56.87
			c0-22.17,7.87-41.13,23.61-56.87c15.74-15.74,34.7-23.61,56.87-23.61C2709.34,422.56,2728.3,430.43,2744.04,446.17z
			 M2654.33,470.35c-8.94,9.04-13.41,19.94-13.41,32.7c0,12.85,4.47,23.8,13.41,32.84c9.03,8.94,19.98,13.41,32.84,13.41
			c12.86,0,23.75-4.47,32.7-13.41c9.04-9.03,13.55-19.98,13.55-32.84c0-12.76-4.52-23.66-13.55-32.7
			c-9.04-9.03-19.93-13.55-32.7-13.55C2674.32,456.79,2663.37,461.31,2654.33,470.35z"/>
		<path class="st0" d="M3015.54,566.62c0,4.75-1.68,8.71-5.03,11.88c-3.35,3.35-7.31,5.03-11.88,5.03h-0.42
			c-4.56,0-8.52-1.68-11.88-5.03c-3.35-3.17-5.03-7.13-5.03-11.88V504.3h-76.15v62.32c0,4.75-1.68,8.71-5.03,11.88
			c-3.35,3.35-7.31,5.03-11.88,5.03h-0.42c-4.57,0-8.52-1.68-11.88-5.03c-3.35-3.17-5.03-7.13-5.03-11.88V437.51
			c0-19.93,7.08-36.98,21.24-51.14c14.16-14.06,31.16-21.1,51-21.1c19.93,0,36.98,7.03,51.14,21.1
			c14.16,14.16,21.24,31.21,21.24,51.14V566.62z M2981.31,470.21v-32.7c0-10.53-3.68-19.51-11.04-26.97
			c-7.45-7.45-16.49-11.18-27.11-11.18c-10.53,0-19.52,3.73-26.97,11.18c-7.36,7.45-11.04,16.44-11.04,26.97v32.7H2981.31z"/>
		<path class="st0" d="M3179.03,365.27c4.56,0,8.52,1.63,11.88,4.89c3.35,3.35,5.03,7.36,5.03,12.02v121.28
			c-0.09,22.17-8.01,41.03-23.75,56.59c-15.74,15.65-34.65,23.47-56.73,23.47c-22.17,0-41.13-7.87-56.87-23.61
			c-15.74-15.74-23.61-34.7-23.61-56.87c0-22.17,7.87-41.13,23.61-56.87c15.74-15.74,34.7-23.61,56.87-23.61
			c20.21,0,35.63,4.66,46.25,13.97v-54.35c0-4.66,1.68-8.66,5.03-12.02c3.35-3.26,7.31-4.89,11.88-4.89H3179.03z M3082.62,470.63
			c-8.94,9.04-13.41,19.98-13.41,32.84c0,12.76,4.47,23.66,13.41,32.7c9.03,9.04,19.98,13.55,32.84,13.55
			c12.76,0,23.66-4.52,32.7-13.55c9.03-9.03,13.55-19.93,13.55-32.7c0-12.85-4.52-23.8-13.55-32.84
			c-9.04-9.03-19.94-13.55-32.7-13.55C3102.6,457.07,3091.65,461.59,3082.62,470.63z"/>
		<path class="st0" d="M3294.45,422.56c22.17,0,41.13,7.87,56.87,23.61c15.74,15.74,23.61,34.7,23.61,56.87
			c0,22.17-7.87,41.13-23.61,56.87c-15.74,15.74-34.7,23.61-56.87,23.61c-22.17,0-41.13-7.87-56.87-23.61
			c-15.74-15.74-23.61-34.7-23.61-56.87c0-22.17,7.87-41.13,23.61-56.87C3253.32,430.43,3272.28,422.56,3294.45,422.56z
			 M3294.45,457.07c-12.86,0-23.8,4.52-32.84,13.55c-8.94,9.04-13.41,19.98-13.41,32.84c0,12.76,4.47,23.66,13.41,32.7
			c9.03,9.04,19.98,13.55,32.84,13.55c12.76,0,23.66-4.52,32.7-13.55c9.03-9.03,13.55-19.93,13.55-32.7
			c0-12.85-4.52-23.8-13.55-32.84C3318.11,461.59,3307.21,457.07,3294.45,457.07z"/>
		<path class="st0" d="M3410.29,365.27c4.56,0,8.52,1.63,11.88,4.89c3.35,3.35,5.03,7.36,5.03,12.02v40.38h20.96
			c4.56,0,8.52,1.68,11.88,5.03s5.03,7.36,5.03,12.02v0.28c0,4.75-1.68,8.71-5.03,11.88c-3.35,3.35-7.31,5.03-11.88,5.03h-20.96
			v82.86c0,2.7,0.93,4.98,2.79,6.85c1.86,1.86,4.19,2.79,6.99,2.79h11.18c4.56,0,8.52,1.68,11.88,5.03s5.03,7.36,5.03,12.02v0.28
			c0,4.75-1.68,8.71-5.03,11.88c-3.35,3.35-7.31,5.03-11.88,5.03h-11.18c-12.11,0-22.5-4.28-31.16-12.85
			c-8.57-8.66-12.86-19-12.86-31.02V382.18c0-4.66,1.68-8.66,5.03-12.02c3.35-3.26,7.31-4.89,11.88-4.89H3410.29z"/>
		<path class="st0" d="M3616.26,446.17c15.74,15.74,23.61,34.7,23.61,56.87v63.58c0,4.75-1.68,8.71-5.03,11.88
			c-3.35,3.35-7.31,5.03-11.88,5.03h-0.42c-4.57,0-8.52-1.68-11.88-5.03c-3.35-3.17-5.03-7.13-5.03-11.88
			c-10.62,11.27-26.04,16.91-46.25,16.91c-22.17,0-41.13-7.87-56.87-23.61c-15.74-15.74-23.61-34.7-23.61-56.87
			c0-22.17,7.87-41.13,23.61-56.87c15.74-15.74,34.7-23.61,56.87-23.61C3581.56,422.56,3600.51,430.43,3616.26,446.17z
			 M3526.55,470.35c-8.94,9.04-13.41,19.94-13.41,32.7c0,12.85,4.47,23.8,13.41,32.84c9.03,8.94,19.98,13.41,32.84,13.41
			c12.86,0,23.75-4.47,32.7-13.41c9.04-9.03,13.55-19.98,13.55-32.84c0-12.76-4.52-23.66-13.55-32.7
			c-9.04-9.03-19.93-13.55-32.7-13.55C3546.53,456.79,3535.59,461.31,3526.55,470.35z"/>
	</g>
</g>
</svg>
